<mxfile host="65bd71144e">
    <diagram id="KRdQDAeArZWBKB4T48Tp" name="Page-1">
        <mxGraphModel dx="820" dy="585" grid="1" gridSize="10" guides="1" tooltips="1" connect="1" arrows="1" fold="1" page="1" pageScale="1" pageWidth="827" pageHeight="1169" math="0" shadow="0">
            <root>
                <mxCell id="0"/>
                <mxCell id="1" parent="0"/>
                <mxCell id="Xdpnmxzv8nvsn3ckrYP9-9" style="edgeStyle=orthogonalEdgeStyle;rounded=0;orthogonalLoop=1;jettySize=auto;html=1;" parent="1" source="Xdpnmxzv8nvsn3ckrYP9-1" target="Xdpnmxzv8nvsn3ckrYP9-5" edge="1">
                    <mxGeometry relative="1" as="geometry"/>
                </mxCell>
                <mxCell id="Xdpnmxzv8nvsn3ckrYP9-11" style="edgeStyle=orthogonalEdgeStyle;rounded=0;orthogonalLoop=1;jettySize=auto;html=1;entryX=0;entryY=0.5;entryDx=0;entryDy=0;entryPerimeter=0;" parent="1" source="Xdpnmxzv8nvsn3ckrYP9-1" target="Xdpnmxzv8nvsn3ckrYP9-2" edge="1">
                    <mxGeometry relative="1" as="geometry"/>
                </mxCell>
                <mxCell id="Xdpnmxzv8nvsn3ckrYP9-1" value="API-GW (Requests Back-end, &lt;br&gt;Swagger)" style="outlineConnect=0;dashed=0;verticalLabelPosition=bottom;verticalAlign=top;align=center;html=1;shape=mxgraph.aws3.api_gateway;fillColor=#D9A741;gradientColor=none;" parent="1" vertex="1">
                    <mxGeometry x="280" y="260.25" width="76.5" height="93" as="geometry"/>
                </mxCell>
                <mxCell id="Xdpnmxzv8nvsn3ckrYP9-12" style="edgeStyle=orthogonalEdgeStyle;rounded=0;orthogonalLoop=1;jettySize=auto;html=1;" parent="1" source="Xdpnmxzv8nvsn3ckrYP9-2" target="Xdpnmxzv8nvsn3ckrYP9-1" edge="1">
                    <mxGeometry relative="1" as="geometry"/>
                </mxCell>
                <mxCell id="Xdpnmxzv8nvsn3ckrYP9-19" style="edgeStyle=orthogonalEdgeStyle;rounded=0;orthogonalLoop=1;jettySize=auto;html=1;entryX=0;entryY=0.5;entryDx=0;entryDy=0;entryPerimeter=0;" parent="1" source="Xdpnmxzv8nvsn3ckrYP9-2" target="Xdpnmxzv8nvsn3ckrYP9-13" edge="1">
                    <mxGeometry relative="1" as="geometry"/>
                </mxCell>
                <mxCell id="Xdpnmxzv8nvsn3ckrYP9-20" style="edgeStyle=orthogonalEdgeStyle;rounded=0;orthogonalLoop=1;jettySize=auto;html=1;entryX=0;entryY=0.5;entryDx=0;entryDy=0;entryPerimeter=0;" parent="1" source="Xdpnmxzv8nvsn3ckrYP9-2" target="Xdpnmxzv8nvsn3ckrYP9-16" edge="1">
                    <mxGeometry relative="1" as="geometry"/>
                </mxCell>
                <mxCell id="Xdpnmxzv8nvsn3ckrYP9-2" value="ECS (Back-end, Java/Spring)" style="outlineConnect=0;dashed=0;verticalLabelPosition=bottom;verticalAlign=top;align=center;html=1;shape=mxgraph.aws3.ecs;fillColor=#F58534;gradientColor=none;" parent="1" vertex="1">
                    <mxGeometry x="450" y="273" width="72" height="67.5" as="geometry"/>
                </mxCell>
                <mxCell id="Xdpnmxzv8nvsn3ckrYP9-10" style="edgeStyle=orthogonalEdgeStyle;rounded=0;orthogonalLoop=1;jettySize=auto;html=1;" parent="1" source="Xdpnmxzv8nvsn3ckrYP9-5" target="Xdpnmxzv8nvsn3ckrYP9-1" edge="1">
                    <mxGeometry relative="1" as="geometry"/>
                </mxCell>
                <mxCell id="Xdpnmxzv8nvsn3ckrYP9-5" value="ECS (Front-end, React.js)" style="outlineConnect=0;dashed=0;verticalLabelPosition=bottom;verticalAlign=top;align=center;html=1;shape=mxgraph.aws3.ecs;fillColor=#F58534;gradientColor=none;" parent="1" vertex="1">
                    <mxGeometry x="110" y="273" width="72" height="67.5" as="geometry"/>
                </mxCell>
                <mxCell id="Xdpnmxzv8nvsn3ckrYP9-13" value="S3(Bucket Storage)" style="outlineConnect=0;dashed=0;verticalLabelPosition=bottom;verticalAlign=top;align=center;html=1;shape=mxgraph.aws3.s3;fillColor=#E05243;gradientColor=none;" parent="1" vertex="1">
                    <mxGeometry x="620" y="167.25" width="76.5" height="93" as="geometry"/>
                </mxCell>
                <mxCell id="Xdpnmxzv8nvsn3ckrYP9-16" value="RDS (Banco Relacional, Instancia MySQL)" style="outlineConnect=0;dashed=0;verticalLabelPosition=bottom;verticalAlign=top;align=center;html=1;shape=mxgraph.aws3.rds;fillColor=#2E73B8;gradientColor=none;" parent="1" vertex="1">
                    <mxGeometry x="622.25" y="353.25" width="72" height="81" as="geometry"/>
                </mxCell>
            </root>
        </mxGraphModel>
    </diagram>
</mxfile>